<svg width="17" height="26" viewBox="0 0 17 26" fill="none" xmlns="http://www.w3.org/2000/svg">
<path d="M1.03711 7.2377L15.4098 18.6476C15.7398 18.909 15.9048 19.0396 15.9661 19.1943C16.0207 19.3329 16.0234 19.4823 15.9716 19.6209C15.9143 19.7769 15.7534 19.9116 15.4316 20.1809L10.5634 24.2473C9.97434 24.7406 9.67844 24.9886 9.42753 24.9992C9.3213 25.0041 9.21529 24.9858 9.11718 24.9457C9.01907 24.9056 8.93131 24.8446 8.86026 24.7672C8.69935 24.5899 8.69935 24.2233 8.69935 23.49V2.51001C8.69935 1.77672 8.69935 1.41008 8.86026 1.23275C8.93131 1.15539 9.01907 1.09444 9.11718 1.05431C9.21529 1.01419 9.3213 0.995902 9.42753 1.00077C9.67844 1.01143 9.97298 1.25809 10.5634 1.75139L15.4766 5.85779C15.7848 6.11377 15.9389 6.2431 15.9975 6.39376C16.048 6.52708 16.0507 6.67374 16.003 6.80706C15.9484 6.96039 15.7984 7.09238 15.497 7.35636L1.03711 20.0436" stroke="white" stroke-width="1.5" stroke-linecap="round" stroke-linejoin="round"/>
</svg>
