<svg width="14" height="16" viewBox="0 0 14 16" fill="none" xmlns="http://www.w3.org/2000/svg">
<path d="M7.46336 0C9.97241 0 12.007 2.05277 12.007 4.58553C12.0064 5.25129 11.8635 5.90877 11.5884 6.51139C11.3132 7.11401 10.9126 7.64703 10.415 8.07268C10.6281 8.17908 10.8217 8.28628 10.9967 8.39428C11.3739 8.62628 11.7651 8.91427 12.1711 9.25747C12.2259 9.30317 12.2712 9.3597 12.3044 9.42372C12.3376 9.48774 12.358 9.55795 12.3644 9.63021C12.3708 9.70246 12.363 9.7753 12.3416 9.84442C12.3201 9.91354 12.2855 9.97755 12.2396 10.0327C12.1455 10.145 12.0126 10.2151 11.869 10.2279C11.7254 10.2408 11.5826 10.1954 11.4712 10.1015C11.1426 9.81947 10.7942 9.56278 10.429 9.33347C10.0727 9.12024 9.70264 8.93234 9.32143 8.77107C8.73564 9.03604 8.10252 9.17228 7.46259 9.17107C6.75752 9.17232 6.06163 9.00671 5.42875 8.68708L5.39608 8.70307C3.85845 9.30787 2.73615 10.2023 2.01283 11.3894C1.28563 12.5806 0.988526 13.9118 1.12152 15.4006C1.12726 15.4732 1.11901 15.5463 1.09724 15.6156C1.07547 15.6849 1.04061 15.7492 0.994652 15.8046C0.948697 15.86 0.892554 15.9056 0.829441 15.9387C0.766329 15.9718 0.697489 15.9917 0.626869 15.9974C0.484194 16.0117 0.34182 15.9673 0.230898 15.8739C0.119977 15.7805 0.0495384 15.6457 0.0349947 15.499C-0.118224 13.7774 0.231768 12.2086 1.08341 10.8126C1.83317 9.58386 2.93448 8.62868 4.37333 7.94789C3.91573 7.52326 3.54984 7.0046 3.29931 6.42543C3.04879 5.84625 2.9192 5.21945 2.91892 4.58553C2.91892 2.05277 4.95432 0 7.46336 0ZM13.0811 11.3918C13.1823 11.289 13.3187 11.2311 13.461 11.2307C13.6032 11.2303 13.7399 11.2873 13.8418 11.3894C14.0518 11.6022 14.0518 11.9478 13.8433 12.1614L12.9162 13.1046L13.8433 14.0486C13.8931 14.099 13.9326 14.1591 13.9595 14.2253C13.9864 14.2916 14.0001 14.3627 14 14.4345C13.9999 14.5063 13.9858 14.5774 13.9586 14.6436C13.9314 14.7097 13.8917 14.7696 13.8418 14.8198C13.7402 14.9222 13.6035 14.9795 13.4613 14.9793C13.319 14.9792 13.1825 14.9216 13.0811 14.819L12.1579 13.8774L11.2347 14.819C11.1441 14.9106 11.0251 14.9666 10.8985 14.9773C10.7719 14.9879 10.6456 14.9526 10.5417 14.8774L10.4748 14.8198C10.4249 14.7696 10.3852 14.7097 10.358 14.6436C10.3308 14.5774 10.3168 14.5063 10.3166 14.4345C10.3165 14.3627 10.3302 14.2916 10.3571 14.2253C10.3841 14.1591 10.4235 14.099 10.4733 14.0486L11.3988 13.1046L10.4733 12.1606C10.4235 12.1102 10.3841 12.0502 10.3571 11.9839C10.3302 11.9176 10.3165 11.8465 10.3166 11.7747C10.3168 11.7029 10.3308 11.6318 10.358 11.5657C10.3852 11.4995 10.4249 11.4396 10.4748 11.3894C10.5765 11.2874 10.713 11.2304 10.8551 11.2307C10.9972 11.231 11.1334 11.2886 11.2347 11.391L12.1579 12.3318L13.0811 11.3918ZM7.46336 1.09998C5.55552 1.09998 4.01012 2.65996 4.01012 4.58473C4.01012 6.50951 5.55552 8.07028 7.46336 8.07028C9.37043 8.07028 10.9166 6.51031 10.9166 4.58473C10.9166 2.65996 9.37043 1.09998 7.46336 1.09998Z" fill="white"/>
</svg>
