<svg width="16" height="16" viewBox="0 0 16 16" fill="none" xmlns="http://www.w3.org/2000/svg">
<path d="M0.13623 8C0.13623 6.94942 0.334759 5.90914 0.720483 4.93853C1.10621 3.96793 1.67157 3.08601 2.38429 2.34315C3.09702 1.60028 3.94314 1.011 4.87436 0.608963C5.80558 0.206924 6.80365 0 7.81159 0C8.81954 0 9.81761 0.206924 10.7488 0.608963C11.68 1.011 12.5262 1.60028 13.2389 2.34315C13.9516 3.08601 14.517 3.96793 14.9027 4.93853C15.2884 5.90914 15.487 6.94942 15.487 8C15.487 10.1217 14.6783 12.1566 13.2389 13.6569C11.7995 15.1571 9.84723 16 7.81159 16C5.77596 16 3.8237 15.1571 2.38429 13.6569C0.944882 12.1566 0.13623 10.1217 0.13623 8ZM7.17198 10.3333C7.17198 10.0681 7.0709 9.81376 6.89097 9.62623C6.71105 9.43869 6.46701 9.33333 6.21256 9.33333C5.9581 9.33333 5.71407 9.43869 5.53415 9.62623C5.35422 9.81376 5.25314 10.0681 5.25314 10.3333C5.25314 10.5985 5.35422 10.8529 5.53415 11.0404C5.71407 11.228 5.9581 11.3333 6.21256 11.3333C6.46701 11.3333 6.71105 11.228 6.89097 11.0404C7.0709 10.8529 7.17198 10.5985 7.17198 10.3333ZM7.17198 5.66667C7.17198 5.40145 7.0709 5.1471 6.89097 4.95956C6.71105 4.77202 6.46701 4.66667 6.21256 4.66667C5.9581 4.66667 5.71407 4.77202 5.53415 4.95956C5.35422 5.1471 5.25314 5.40145 5.25314 5.66667C5.25314 5.93188 5.35422 6.18624 5.53415 6.37377C5.71407 6.56131 5.9581 6.66667 6.21256 6.66667C6.46701 6.66667 6.71105 6.56131 6.89097 6.37377C7.0709 6.18624 7.17198 5.93188 7.17198 5.66667ZM11.4216 5.50933C11.4896 5.45424 11.5462 5.3854 11.588 5.30694C11.6299 5.22848 11.6561 5.14202 11.6651 5.05274C11.6741 4.96346 11.6658 4.87321 11.6405 4.78739C11.6152 4.70157 11.5736 4.62195 11.5181 4.55332C11.4626 4.48468 11.3943 4.42843 11.3175 4.38795C11.2406 4.34747 11.1567 4.32359 11.0707 4.31774C10.9848 4.31189 10.8986 4.32419 10.8173 4.3539C10.736 4.38362 10.6614 4.43014 10.5977 4.49067C8.58936 6.25733 8.58936 9.744 10.5977 11.5093C10.6614 11.5699 10.736 11.6164 10.8173 11.6461C10.8986 11.6758 10.9848 11.6881 11.0707 11.6823C11.1567 11.6764 11.2406 11.6525 11.3175 11.6121C11.3943 11.5716 11.4626 11.5153 11.5181 11.4467C11.5736 11.378 11.6152 11.2984 11.6405 11.2126C11.6658 11.1268 11.6741 11.0365 11.6651 10.9473C11.6561 10.858 11.6299 10.7715 11.588 10.6931C11.5462 10.6146 11.4896 10.5458 11.4216 10.4907C10.0195 9.25733 10.0195 6.744 11.4216 5.50933Z" fill="white"/>
</svg>
