<svg width="28" height="28" viewBox="0 0 28 28" fill="none" xmlns="http://www.w3.org/2000/svg">
<path d="M27.0371 14C27.0371 21.1798 21.2169 27 14.0371 27C6.85735 27 1.03711 21.1798 1.03711 14C1.03711 6.82025 6.85735 1 14.0371 1C21.2169 1 27.0371 6.82025 27.0371 14" stroke="black" stroke-width="1.5"/>
<path fill-rule="evenodd" clip-rule="evenodd" d="M27.0371 14C27.0371 21.1798 21.2169 27 14.0371 27C6.85735 27 1.03711 21.1798 1.03711 14C1.03711 6.82025 6.85735 1 14.0371 1C21.2169 1 27.0371 6.82025 27.0371 14Z" stroke="white" stroke-width="1.5" stroke-linecap="round" stroke-linejoin="round"/>
<path d="M10.8991 9.96558V18.0345" stroke="white" stroke-width="1.5" stroke-linecap="round" stroke-linejoin="round"/>
<path d="M17.1751 9.96558V18.0345" stroke="white" stroke-width="1.5" stroke-linecap="round" stroke-linejoin="round"/>
</svg>
