<svg width="61" height="61" viewBox="0 0 61 61" fill="none" xmlns="http://www.w3.org/2000/svg">
<ellipse cx="30.8808" cy="30.2753" rx="15.1376" ry="27.8533" stroke="white" stroke-width="0.5"/>
<ellipse cx="30.2753" cy="30.2753" rx="15.7431" ry="27.8533" transform="rotate(-90 30.2753 30.2753)" stroke="white" stroke-width="0.5"/>
<ellipse cx="30.5" cy="30.2752" rx="15.1686" ry="27.8038" transform="rotate(-45.747 30.5 30.2752)" stroke="white" stroke-width="0.5"/>
<ellipse cx="30.4999" cy="30.2753" rx="15.1686" ry="27.8038" transform="rotate(-134.304 30.4999 30.2753)" stroke="white" stroke-width="0.5"/>
<path d="M29.5027 31.9989C26.7516 31.3593 21.7852 29.3372 23.9286 26.3661C25.0065 25.4995 27.6303 25.3138 29.5027 31.5037C29.6156 32.1123 29.5088 34.0415 28.1785 36.8888C26.5155 40.448 23.2511 40.7575 22.0193 38.622C21.0338 36.9136 21.8961 35.4961 22.4504 35.0009C23.0663 34.2788 25.0126 32.6674 27.8705 31.9989C29.6053 32.0195 33.346 31.9494 34.43 31.5037C36.5447 30.9466 40.854 28.8792 41.1743 25.0662C41.0203 23.9211 40.1396 21.6742 37.8483 21.8475C35.5571 22.0208 34.0399 23.7148 33.5677 24.5401C32.6233 25.9741 30.8454 29.6839 31.2888 33.0511C31.8432 37.2602 34.3376 39.2719 34.8304 39.5814C35.939 40.1695 38.3349 40.5161 39.0494 37.1983C39.0083 36.1048 37.7929 33.5835 33.2598 32.2465C32.1409 32.1639 29.4965 31.9494 27.8705 31.7513C26.187 31.5862 22.3149 30.5566 20.2947 27.7588C17.7695 24.2616 20.9722 21.3833 23.6207 21.8475C26.2691 22.3118 29.2255 27.2327 29.5027 30.3895C29.7244 32.915 28.5069 35.0113 27.8705 35.7437C27.2135 36.5484 25.6717 37.675 24.7601 35.7437C24.4419 35.0525 24.68 33.3854 28.1785 32.2465C29.1331 32.1536 31.4428 31.8751 33.0442 31.5037C35.0459 31.0394 38.5567 28.6254 36.5857 26.3661C35.9185 25.653 34.159 25.0013 32.4591 28.0993C30.3342 31.9717 31.5352 33.4225 31.9355 34.7533C32.3359 36.0842 34.0605 37.5697 35.3231 36.4246C36.5857 35.2795 35.3847 33.4844 33.5369 32.7726C31.6892 32.0608 29.9338 31.937 29.5027 31.9989Z" stroke="white" stroke-width="0.5"/>
</svg>
