<svg width="16" height="15" viewBox="0 0 16 15" fill="none" xmlns="http://www.w3.org/2000/svg">
<path d="M3.63636 6.75H9.45455V8.25H3.63636V10.5L0 7.5L3.63636 4.5V6.75ZM2.90909 12H4.87855C5.71832 12.7638 6.75395 13.2614 7.86118 13.4332C8.96841 13.605 10.1002 13.4437 11.1207 12.9686C12.1413 12.4935 13.0072 11.7249 13.6146 10.7549C14.222 9.78484 14.5451 8.65468 14.5451 7.5C14.5451 6.34531 14.222 5.21516 13.6146 4.24514C13.0072 3.27512 12.1413 2.50646 11.1207 2.03137C10.1002 1.55629 8.96841 1.39498 7.86118 1.5668C6.75395 1.73861 5.71832 2.23625 4.87855 3H2.90909C3.58594 2.06788 4.46424 1.31138 5.47423 0.790608C6.48423 0.269831 7.59807 -0.000872732 8.72727 2.11371e-06C12.744 2.11371e-06 16 3.35775 16 7.5C16 11.6422 12.744 15 8.72727 15C7.59807 15.0009 6.48423 14.7302 5.47423 14.2094C4.46424 13.6886 3.58594 12.9321 2.90909 12Z" fill="#FF4848"/>
</svg>
