<svg width="24" height="29" viewBox="0 0 24 29" fill="none" xmlns="http://www.w3.org/2000/svg">
<path d="M20.583 14.4975C20.583 15.5199 20.4126 16.5043 20.1008 17.4215L18.6252 15.9459C18.7217 15.4691 18.7703 14.9839 18.7702 14.4975V12.6846C18.7702 12.4443 18.8657 12.2137 19.0357 12.0437C19.2056 11.8737 19.4362 11.7782 19.6766 11.7782C19.917 11.7782 20.1475 11.8737 20.3175 12.0437C20.4875 12.2137 20.583 12.4443 20.583 12.6846V14.4975ZM11.5189 21.7487C13.0018 21.7487 14.3795 21.3046 15.5289 20.5396L16.8305 21.843C15.5364 22.7814 14.0161 23.3589 12.4253 23.5162V27.1872H17.8638C18.1042 27.1872 18.3347 27.2827 18.5047 27.4527C18.6747 27.6226 18.7702 27.8532 18.7702 28.0936C18.7702 28.334 18.6747 28.5645 18.5047 28.7345C18.3347 28.9045 18.1042 29 17.8638 29H5.17406C4.93366 29 4.70312 28.9045 4.53313 28.7345C4.36315 28.5645 4.26765 28.334 4.26765 28.0936C4.26765 27.8532 4.36315 27.6226 4.53313 27.4527C4.70312 27.2827 4.93366 27.1872 5.17406 27.1872H10.6125V23.5162C8.37673 23.2915 6.30412 22.2444 4.79677 20.5779C3.28943 18.9115 2.45481 16.7445 2.45483 14.4975V12.6846C2.45483 12.4443 2.55033 12.2137 2.72032 12.0437C2.8903 11.8737 3.12085 11.7782 3.36124 11.7782C3.60164 11.7782 3.83219 11.8737 4.00217 12.0437C4.17215 12.2137 4.26765 12.4443 4.26765 12.6846V14.4975C4.26765 16.4206 5.03162 18.265 6.3915 19.6249C7.75137 20.9848 9.59576 21.7487 11.5189 21.7487ZM16.9574 5.43338V14.2781L15.1446 12.4653V5.43338C15.1487 4.48756 14.7832 3.57755 14.1258 2.89749C13.4684 2.21744 12.5714 1.82119 11.6259 1.79328C10.6805 1.76537 9.76163 2.10801 9.0653 2.7481C8.36897 3.38819 7.95034 4.27505 7.89872 5.21947L6.36689 3.68764C6.78192 2.46805 7.61628 1.43532 8.72144 0.773295C9.8266 0.111272 11.1308 -0.137081 12.4019 0.0724515C13.6731 0.281984 14.8286 0.935802 15.6628 1.91751C16.497 2.89922 16.9557 4.14511 16.9574 5.43338Z" fill="white"/>
<path d="M14.2125 19.2235L12.8565 17.8675C12.3065 18.0858 11.7115 18.1663 11.1233 18.1017C10.5351 18.0372 9.97159 17.8297 9.48204 17.4973C8.99248 17.1649 8.59172 16.7178 8.31474 16.1949C8.03775 15.672 7.89296 15.0892 7.893 14.4975V12.9058L6.08019 11.093V14.4975C6.0799 15.4498 6.32969 16.3855 6.80454 17.2109C7.2794 18.0364 7.96269 18.7227 8.78605 19.2012C9.60942 19.6797 10.544 19.9336 11.4963 19.9375C12.4486 19.9414 13.3852 19.6952 14.2125 19.2235ZM0 2.44949L21.7538 24.2033L23.0373 22.9198L1.28347 1.16602L0 2.44949Z" fill="white"/>
</svg>
