<svg width="13" height="14" viewBox="0 0 13 14" fill="none" xmlns="http://www.w3.org/2000/svg">
<path d="M6.49977 1.90022e-07C7.34949 -0.000264992 8.17692 0.27703 8.86061 0.791184C9.5443 1.30534 10.0482 2.02927 10.2985 2.85673C10.5487 3.6842 10.532 4.5716 10.2509 5.38871C9.96983 6.20581 9.43909 6.90958 8.7366 7.39671C9.95592 7.85242 11.0135 8.66956 11.7732 9.74295C12.5328 10.8163 12.9599 12.0969 12.9993 13.4196C13.003 13.4931 12.9922 13.5665 12.9677 13.6356C12.9432 13.7048 12.9053 13.7682 12.8564 13.8223C12.8075 13.8763 12.7484 13.9198 12.6828 13.9503C12.6171 13.9808 12.5462 13.9976 12.474 13.9998C12.4019 14.0019 12.3301 13.9894 12.2628 13.9629C12.1955 13.9364 12.1341 13.8964 12.0821 13.8454C12.0302 13.7944 11.9887 13.7333 11.9603 13.6658C11.9318 13.5982 11.9168 13.5256 11.9163 13.452C11.8733 12.0175 11.2838 10.6564 10.2727 9.65718C9.26171 8.65795 7.90859 8.09913 6.50013 8.09913C5.09167 8.09913 3.73855 8.65795 2.72752 9.65718C1.71649 10.6564 1.127 12.0175 1.08398 13.452C1.07967 13.5985 1.01844 13.7372 0.913776 13.8376C0.809107 13.9381 0.669568 13.992 0.525856 13.9876C0.382144 13.9832 0.24603 13.9209 0.147459 13.8142C0.0488875 13.7075 -0.0040673 13.5654 0.000244066 13.4189C0.0397991 12.0962 0.466897 10.8159 1.22657 9.74265C1.98625 8.6694 3.04373 7.85238 4.26294 7.39671C3.56045 6.90958 3.0297 6.20581 2.7486 5.38871C2.46749 4.5716 2.45083 3.6842 2.70107 2.85673C2.9513 2.02927 3.45524 1.30534 4.13893 0.791184C4.82262 0.27703 5.65005 -0.000264992 6.49977 1.90022e-07ZM3.60981 4.04916C3.60981 4.83018 3.91428 5.57921 4.45626 6.13148C4.99823 6.68374 5.7333 6.994 6.49977 6.994C7.26623 6.994 8.00131 6.68374 8.54328 6.13148C9.08525 5.57921 9.38973 4.83018 9.38973 4.04916C9.38973 3.26814 9.08525 2.51911 8.54328 1.96684C8.00131 1.41458 7.26623 1.10432 6.49977 1.10432C5.7333 1.10432 4.99823 1.41458 4.45626 1.96684C3.91428 2.51911 3.60981 3.26814 3.60981 4.04916Z" fill="white"/>
</svg>
