<svg width="16" height="13" viewBox="0 0 16 13" fill="none" xmlns="http://www.w3.org/2000/svg">
<path d="M14.8571 2.4186H1.79592C1.57942 2.4186 1.37178 2.33897 1.21869 2.19723C1.0656 2.05549 0.979592 1.86325 0.979592 1.66279C0.979592 1.46234 1.0656 1.27009 1.21869 1.12835C1.37178 0.986607 1.57942 0.906977 1.79592 0.906977H12.898C13.0279 0.906977 13.1524 0.859199 13.2443 0.774153C13.3362 0.689108 13.3878 0.573761 13.3878 0.453488C13.3878 0.333216 13.3362 0.217869 13.2443 0.132824C13.1524 0.047778 13.0279 0 12.898 0H1.79592C1.31961 0 0.862812 0.175186 0.526012 0.48702C0.189212 0.798854 0 1.22179 0 1.66279V11.3372C0 11.7782 0.189212 12.2011 0.526012 12.513C0.862812 12.8248 1.31961 13 1.79592 13H14.8571C15.1602 13 15.4509 12.8885 15.6653 12.6901C15.8796 12.4916 16 12.2225 16 11.9419V3.47674C16 3.19611 15.8796 2.92697 15.6653 2.72853C15.4509 2.53009 15.1602 2.4186 14.8571 2.4186ZM15.0204 11.9419C15.0204 11.982 15.0032 12.0204 14.9726 12.0487C14.942 12.0771 14.9004 12.093 14.8571 12.093H1.79592C1.57942 12.093 1.37178 12.0134 1.21869 11.8717C1.0656 11.7299 0.979592 11.5377 0.979592 11.3372V3.14343C1.23216 3.26346 1.51203 3.32591 1.79592 3.32558H14.8571C14.9004 3.32558 14.942 3.34151 14.9726 3.36986C15.0032 3.3982 15.0204 3.43665 15.0204 3.47674V11.9419ZM12.7347 7.40698C12.7347 7.55646 12.6868 7.70259 12.5971 7.82688C12.5074 7.95118 12.3799 8.04805 12.2308 8.10526C12.0816 8.16246 11.9175 8.17743 11.7591 8.14827C11.6008 8.1191 11.4553 8.04712 11.3411 7.94142C11.227 7.83572 11.1492 7.70104 11.1177 7.55443C11.0862 7.40781 11.1024 7.25585 11.1642 7.11774C11.226 6.97963 11.3306 6.86159 11.4648 6.77854C11.5991 6.69549 11.7569 6.65116 11.9184 6.65116C12.1349 6.65116 12.3425 6.73079 12.4956 6.87253C12.6487 7.01428 12.7347 7.20652 12.7347 7.40698Z" fill="white"/>
</svg>
