<svg width="21" height="21" viewBox="0 0 21 21" fill="none" xmlns="http://www.w3.org/2000/svg">
<path d="M10.5 0L13.1574 2.32139L16.6717 2.00532L17.4571 5.44534L20.4861 7.25532L19.0995 10.5L20.4861 13.7447L17.4571 15.5547L16.6717 18.9947L13.1574 18.6786L10.5 21L7.84261 18.6786L4.32825 18.9947L3.54286 15.5547L0.513906 13.7447L1.9005 10.5L0.513906 7.25532L3.54286 5.44534L4.32825 2.00532L7.84261 2.32139L10.5 0Z" fill="white"/>
<path d="M8.14 6.97C8.62 6.97 9.02 7.13 9.34 7.44C9.65 7.76 9.81 8.16 9.81 8.64C9.81 9.13 9.65 9.53 9.34 9.84C9.02 10.15 8.62 10.31 8.14 10.31C7.65 10.31 7.25 10.15 6.94 9.84C6.63 9.53 6.47 9.13 6.47 8.64C6.47 8.16 6.63 7.76 6.94 7.44C7.25 7.13 7.65 6.97 8.14 6.97ZM7.79 14L11.93 7.06H12.7L8.57 14H7.79ZM8.77 7.98C8.44 7.63 7.84 7.63 7.52 7.98C7.19 8.32 7.19 8.96 7.52 9.3C7.84 9.65 8.44 9.65 8.77 9.3C9.09 8.96 9.09 8.32 8.77 7.98ZM12.36 10.75C12.84 10.75 13.24 10.91 13.56 11.22C13.87 11.54 14.03 11.94 14.03 12.42C14.03 12.91 13.87 13.31 13.56 13.62C13.24 13.93 12.84 14.09 12.36 14.09C11.87 14.09 11.47 13.93 11.16 13.62C10.85 13.31 10.69 12.91 10.69 12.42C10.69 11.94 10.85 11.54 11.16 11.22C11.47 10.91 11.87 10.75 12.36 10.75ZM12.99 11.76C12.66 11.41 12.06 11.41 11.74 11.76C11.41 12.1 11.41 12.74 11.74 13.08C12.06 13.43 12.66 13.43 12.99 13.08C13.31 12.74 13.31 12.1 12.99 11.76Z" fill="#15142C"/>
</svg>
