<svg width="16" height="15" viewBox="0 0 16 15" fill="none" xmlns="http://www.w3.org/2000/svg">
<path d="M0 1.31263C0 0.588056 0.597333 0 1.33333 0H14.6667C15.4027 0 16 0.588056 16 1.31263V10.6885C16 11.0367 15.8595 11.3705 15.6095 11.6167C15.3594 11.8629 15.0203 12.0011 14.6667 12.0011H7.36305C7.33802 12.0011 7.31322 12.0059 7.29008 12.0153C7.26694 12.0247 7.24591 12.0385 7.22819 12.0559L4.56152 14.6812C4.40613 14.8336 4.2084 14.9373 3.99323 14.9792C3.77807 15.0211 3.55511 14.9994 3.35247 14.9168C3.14982 14.8342 2.97656 14.6943 2.85451 14.5149C2.73247 14.3355 2.66711 14.1245 2.66667 13.9086V12.0011H1.33333C0.979711 12.0011 0.640573 11.8629 0.390524 11.6167C0.140476 11.3705 0 11.0367 0 10.6885V1.31263ZM1.33333 1.12511C1.28282 1.12511 1.23437 1.14486 1.19865 1.18003C1.16293 1.2152 1.14286 1.26289 1.14286 1.31263V10.6885C1.14286 10.792 1.22819 10.876 1.33333 10.876H3.2381C3.38965 10.876 3.53499 10.9353 3.64216 11.0408C3.74932 11.1463 3.80952 11.2894 3.80952 11.4386V13.8313L6.42057 11.2608C6.67048 11.0146 7.00949 10.8762 7.36305 10.876H14.6667C14.7172 10.876 14.7656 10.8563 14.8014 10.8211C14.8371 10.786 14.8571 10.7383 14.8571 10.6885V1.31263C14.8571 1.26289 14.8371 1.2152 14.8014 1.18003C14.7656 1.14486 14.7172 1.12511 14.6667 1.12511H1.33333ZM8 2.62525C8.15155 2.62525 8.2969 2.68452 8.40406 2.79002C8.51122 2.89552 8.57143 3.03861 8.57143 3.18781V6.18809C8.57143 6.33729 8.51122 6.48038 8.40406 6.58588C8.2969 6.69138 8.15155 6.75065 8 6.75065C7.84845 6.75065 7.7031 6.69138 7.59594 6.58588C7.48878 6.48038 7.42857 6.33729 7.42857 6.18809V3.18781C7.42857 3.03861 7.48878 2.89552 7.59594 2.79002C7.7031 2.68452 7.84845 2.62525 8 2.62525ZM8 9.3759C7.79793 9.3759 7.60414 9.29687 7.46125 9.15621C7.31837 9.01554 7.2381 8.82476 7.2381 8.62583C7.2381 8.42689 7.31837 8.23611 7.46125 8.09545C7.60414 7.95478 7.79793 7.87575 8 7.87575C8.20207 7.87575 8.39586 7.95478 8.53875 8.09545C8.68163 8.23611 8.7619 8.42689 8.7619 8.62583C8.7619 8.82476 8.68163 9.01554 8.53875 9.15621C8.39586 9.29687 8.20207 9.3759 8 9.3759Z" fill="white"/>
</svg>
