<svg width="29" height="27" viewBox="0 0 29 27" fill="none" xmlns="http://www.w3.org/2000/svg">
<path d="M18.1218 1.69183C18.1218 0.217868 16.2371 -0.548658 15.0773 0.454242L8.06056 6.5206C7.89318 6.66575 7.67309 6.74657 7.44442 6.74684H2.71827C1.99734 6.74684 1.30594 7.01367 0.796162 7.48862C0.286388 7.96357 0 8.60774 0 9.27942V17.7213C0 18.393 0.286388 19.0372 0.796162 19.5121C1.30594 19.9871 1.99734 20.2539 2.71827 20.2539H7.44442C7.67284 20.2537 7.8929 20.3339 8.06056 20.4785L15.0773 26.5465C16.2371 27.5477 18.1218 26.7829 18.1218 25.3089V1.69183ZM9.29284 7.75818L16.3096 1.69183V25.3089L9.29284 19.2409C8.79014 18.8067 8.12992 18.5654 7.44442 18.5655H2.71827C2.47796 18.5655 2.24749 18.4766 2.07756 18.3183C1.90764 18.1599 1.81218 17.9452 1.81218 17.7213V9.27942C1.81218 9.05552 1.90764 8.8408 2.07756 8.68248C2.24749 8.52417 2.47796 8.43523 2.71827 8.43523H7.44442C8.12992 8.43531 8.79014 8.1924 9.29284 7.75818ZM24.0295 4.43038C24.1182 4.35654 24.2217 4.29972 24.3341 4.26315C24.4464 4.22659 24.5654 4.211 24.6842 4.21727C24.803 4.22354 24.9193 4.25155 25.0265 4.29971C25.1337 4.34786 25.2296 4.41521 25.3089 4.49792C27.6859 6.97424 29 10.1799 29 13.5021C29 16.8242 27.6859 20.0299 25.3089 22.5062C25.1479 22.6706 24.9238 22.7692 24.6852 22.7804C24.4467 22.7917 24.213 22.7147 24.035 22.5662C23.8571 22.4178 23.7492 22.2099 23.735 21.9878C23.7207 21.7656 23.8011 21.5472 23.9588 21.3801C26.0388 19.2132 27.1887 16.4082 27.1887 13.5012C27.1887 10.5942 26.0388 7.78919 23.9588 5.62238C23.7985 5.45558 23.7159 5.23629 23.7292 5.01274C23.7424 4.78921 23.8504 4.57972 24.0295 4.43038ZM21.8983 18.4541C21.6902 18.3421 21.5384 18.1578 21.4762 17.9415C21.414 17.7252 21.4466 17.4948 21.5667 17.3009C22.2828 16.146 22.6598 14.8358 22.6598 13.5021C22.6598 12.1683 22.2828 10.8581 21.5667 9.7032C21.5012 9.60712 21.4571 9.49967 21.4373 9.38733C21.4175 9.27498 21.4222 9.16006 21.4513 9.04947C21.4804 8.93888 21.5332 8.83492 21.6065 8.74383C21.6798 8.65275 21.7721 8.57642 21.8779 8.51944C21.9837 8.46246 22.1008 8.42601 22.2221 8.41228C22.3434 8.39855 22.4665 8.40783 22.5838 8.43955C22.7012 8.47127 22.8105 8.52479 22.9051 8.59687C22.9996 8.66896 23.0776 8.75813 23.1342 8.85901C24.0097 10.2704 24.4707 11.8717 24.471 13.5018C24.4714 15.132 24.0109 16.7334 23.1361 18.1451C23.0159 18.339 22.818 18.4805 22.5859 18.5384C22.3538 18.5964 22.1065 18.566 21.8983 18.4541Z" fill="white"/>
</svg>
