<svg width="22" height="22" viewBox="0 0 22 22" fill="none" xmlns="http://www.w3.org/2000/svg">
<path d="M11.0442 6.55264e-05C5.00804 6.55264e-05 0.0884424 4.89505 0.0884424 10.901C0.0884424 12.826 0.596985 14.696 1.54774 16.346L0 22L5.80402 20.482C7.40703 21.351 9.20904 21.813 11.0442 21.813C17.0804 21.813 22 16.918 22 10.912C22 7.99704 20.8613 5.25805 18.794 3.20106C17.7804 2.18238 16.5732 1.3747 15.2426 0.825119C13.9121 0.275542 12.4849 -0.00492811 11.0442 6.55264e-05ZM11.0553 1.83706C13.4874 1.83706 15.7648 2.78306 17.4894 4.49905C18.3358 5.34094 19.0069 6.3408 19.4641 7.44128C19.9213 8.54177 20.1557 9.72123 20.1538 10.912C20.1538 15.906 16.0633 19.965 11.0442 19.965C9.40804 19.965 7.80502 19.536 6.41206 18.7L6.0804 18.513L2.63116 19.415L3.54874 16.071L3.32764 15.719C2.41441 14.2766 1.93137 12.6058 1.93467 10.901C1.94573 5.90705 6.02512 1.83706 11.0553 1.83706ZM7.16382 5.86305C6.98693 5.86305 6.68844 5.92905 6.43417 6.20405C6.19095 6.47905 5.47236 7.15004 5.47236 8.48104C5.47236 9.82304 6.45628 11.11 6.57789 11.297C6.73266 11.484 8.52362 14.234 11.2764 15.4C11.9286 15.697 12.4372 15.862 12.8352 15.983C13.4874 16.192 14.0844 16.159 14.5598 16.093C15.0905 16.016 16.1739 15.433 16.406 14.795C16.6382 14.157 16.6382 13.618 16.5719 13.497C16.4945 13.387 16.3176 13.321 16.0412 13.2C15.7648 13.046 14.4161 12.386 14.1729 12.298C13.9186 12.21 13.7638 12.166 13.5538 12.43C13.3769 12.705 12.8462 13.321 12.6915 13.497C12.5256 13.684 12.3709 13.706 12.1055 13.574C11.8181 13.431 10.9337 13.145 9.89447 12.221C9.07638 11.495 8.53467 10.604 8.36884 10.329C8.23618 10.065 8.35779 9.90004 8.49045 9.77904C8.61206 9.65804 8.78894 9.46004 8.8995 9.29504C9.04322 9.14104 9.08744 9.02004 9.17588 8.84404C9.26432 8.65704 9.2201 8.50304 9.15377 8.37104C9.08744 8.25004 8.53467 6.88605 8.30251 6.34705C8.08141 5.81905 7.8603 5.88505 7.68342 5.87405C7.52864 5.87405 7.35176 5.86305 7.16382 5.86305Z" fill="white"/>
</svg>
